<?xml version="1.0" encoding="utf-8"?>
<!-- Generator: Adobe Illustrator 18.0.0, SVG Export Plug-In . SVG Version: 6.00 Build 0)  -->
<!DOCTYPE svg PUBLIC "-//W3C//DTD SVG 1.1//EN" "http://www.w3.org/Graphics/SVG/1.1/DTD/svg11.dtd">
<svg version="1.1" id="Layer_1" xmlns="http://www.w3.org/2000/svg" xmlns:xlink="http://www.w3.org/1999/xlink" x="0px" y="0px"
	 width="24px" height="33.2px" viewBox="0 0 36 38.9" enable-background="new 0 0 36 38.9" xml:space="preserve">
<g>
	<g>
		<defs>
			<rect id="SVGID_1_" x="0" y="0" width="36" height="38.9"/>
		</defs>
		<clipPath id="SVGID_2_">
			<use xlink:href="#SVGID_1_"  overflow="visible"/>
		</clipPath>
		<path clip-path="url(#SVGID_2_)" fill="#E25525" d="M10.3,25.5h21.3c2.4,0,4.4-2,4.4-4.4v-9.1c0,0,0,0,0,0c0,0,0,0,0-0.1
			c0,0,0,0,0,0c0,0,0,0,0-0.1c0,0,0,0,0,0c0,0,0,0,0,0c0,0,0,0,0-0.1c0,0,0,0,0,0l0,0c0,0,0,0,0,0c0,0,0,0,0,0c0,0,0,0,0,0
			c0,0,0,0,0,0c0,0,0,0,0,0c0,0,0,0,0,0l0,0c0,0,0,0,0,0c0,0,0,0,0,0c0,0,0,0,0,0c0,0,0,0,0,0l-0.1,0l0,0c0,0,0,0,0,0c0,0,0,0-0.1,0
			c0,0,0,0,0,0c0,0,0,0-0.1,0c0,0,0,0,0,0L8,7.4V3.6c0,0,0-0.1,0-0.1c0,0,0,0,0,0c0,0,0,0,0-0.1c0,0,0,0,0-0.1c0,0,0,0,0,0l0-0.1
			c0,0,0,0,0,0c0,0,0,0,0-0.1c0,0,0,0,0,0c0,0,0,0,0,0c0,0,0,0,0,0c0,0,0,0,0,0c0,0,0,0,0,0L7.7,2.8l0,0c0,0,0,0-0.1,0c0,0,0,0,0,0
			c0,0,0,0,0,0c0,0,0,0-0.1,0c0,0,0,0,0,0c0,0-0.1,0-0.1,0L1.5,0.1c-0.5-0.2-1.2,0-1.4,0.6c-0.2,0.5,0,1.2,0.6,1.4l5.2,2.2v23.5
			c0,2.2,1.7,4.1,3.8,4.4c-0.4,0.7-0.6,1.4-0.6,2.2c0,2.4,1.9,4.3,4.3,4.3s4.3-1.9,4.3-4.3c0-0.8-0.2-1.6-0.6-2.2h9.7
			c-0.4,0.6-0.6,1.4-0.6,2.2c0,2.4,1.9,4.3,4.3,4.3s4.3-1.9,4.3-4.3s-1.9-4.3-4.3-4.3H10.3c-1.2,0-2.2-1-2.2-2.2v-2.9
			C8.7,25.3,9.4,25.5,10.3,25.5L10.3,25.5z M15.6,34.4c0,1.2-1,2.2-2.2,2.2c-1.2,0-2.2-1-2.2-2.2c0-1.2,1-2.2,2.2-2.2
			C14.6,32.2,15.6,33.2,15.6,34.4L15.6,34.4z M32.7,34.4c0,1.2-1,2.2-2.2,2.2c-1.2,0-2.2-1-2.2-2.2c0-1.2,1-2.2,2.2-2.2
			C31.8,32.2,32.7,33.2,32.7,34.4L32.7,34.4z M31.6,23.4H10.3c-1.2,0-2.2-1-2.2-2.2V9.5l25.8,3.6v8C33.8,22.4,32.8,23.4,31.6,23.4
			L31.6,23.4z M31.6,23.4"/>
	</g>
</g>
</svg>
