<?xml version="1.0" encoding="utf-8"?>
<!-- Generator: Adobe Illustrator 21.1.0, SVG Export Plug-In . SVG Version: 6.00 Build 0)  -->
<svg version="1.1" id="Layer_1" xmlns="http://www.w3.org/2000/svg" xmlns:xlink="http://www.w3.org/1999/xlink" x="0px" y="0px"
	 viewBox="0 0 45.5 54.2" style="enable-background:new 0 0 45.5 54.2;" xml:space="preserve">
<style type="text/css">
	.st0{fill:#FFFFFF;}
</style>
<g>
	<path class="st0" d="M45.5,14c0-1.5-0.1-2.8-0.1-4.2c0-1-0.8-1.9-1.9-1.9c-8.1,0-14.3-2.3-19.4-7.3c-0.7-0.7-1.9-0.7-2.6,0
		C16.3,5.5,10.1,7.9,2,7.9c-1,0-1.9,0.8-1.9,1.9c0,1.3,0,2.7-0.1,4.2c-0.3,13.6-0.6,32.3,22.1,40.1c0.2,0.1,0.4,0.1,0.6,0.1
		c0.2,0,0.4,0,0.6-0.1C46.1,46.2,45.7,27.6,45.5,14z M22.8,50.3C3.3,43.2,3.6,27.7,3.9,14c0-0.8,0-1.6,0-2.4
		c7.6-0.3,13.7-2.6,18.9-7.2C28,9,34,11.3,41.6,11.6c0,0.8,0,1.6,0,2.4C41.9,27.7,42.2,43.2,22.8,50.3z"/>
	<path class="st0" d="M29.3,20.5l-9.2,9.2l-3.9-3.9c-0.7-0.7-1.9-0.7-2.7,0c-0.7,0.7-0.7,1.9,0,2.7l5.2,5.2c0.4,0.4,0.9,0.6,1.3,0.6
		c0.5,0,1-0.2,1.3-0.6L32,23.2c0.7-0.7,0.7-1.9,0-2.7C31.2,19.8,30,19.8,29.3,20.5z"/>
</g>
</svg>
