<?xml version="1.0" encoding="utf-8"?>
<!-- Generator: Adobe Illustrator 21.1.0, SVG Export Plug-In . SVG Version: 6.00 Build 0)  -->
<svg version="1.1" id="Layer_1" xmlns="http://www.w3.org/2000/svg" xmlns:xlink="http://www.w3.org/1999/xlink" x="0px" y="0px"
	 viewBox="0 0 49.7 49.7" style="enable-background:new 0 0 49.7 49.7;" xml:space="preserve">
<style type="text/css">
	.st0{fill:#FFFFFF;}
</style>
<g>
	<g>
		<path class="st0" d="M39.3,30.8c-1-1.1-2.2-1.6-3.5-1.6c-1.3,0-2.5,0.6-3.6,1.6l-3.3,3.3c-0.3-0.1-0.5-0.3-0.8-0.4
			c-0.4-0.2-0.7-0.4-1-0.6c-3.1-2-5.9-4.5-8.6-7.9c-1.3-1.7-2.2-3.1-2.8-4.5c0.9-0.8,1.7-1.6,2.4-2.4c0.3-0.3,0.6-0.6,0.9-0.9
			c2.2-2.2,2.2-5.1,0-7.3l-2.9-2.9c-0.3-0.3-0.7-0.7-1-1c-0.6-0.7-1.3-1.3-2-2c-1-1-2.2-1.5-3.5-1.5S7,3.4,5.9,4.4c0,0,0,0,0,0
			L2.3,8C1,9.4,0.2,11,0,12.9c-0.3,3.1,0.7,5.9,1.3,7.8c1.7,4.6,4.2,8.8,8,13.4C14,39.6,19.5,43.9,25.9,47c2.4,1.1,5.6,2.5,9.2,2.7
			c0.2,0,0.5,0,0.7,0c2.4,0,4.5-0.9,6.1-2.6c0,0,0,0,0-0.1c0.5-0.7,1.2-1.3,1.8-1.9c0.5-0.4,0.9-0.9,1.4-1.4c1-1.1,1.6-2.3,1.6-3.6
			c0-1.3-0.6-2.6-1.6-3.6L39.3,30.8z M43,41.9C43,41.9,43,41.9,43,41.9c-0.4,0.4-0.8,0.8-1.3,1.3c-0.7,0.7-1.4,1.3-2,2.1
			c-1.1,1.1-2.3,1.7-3.9,1.7c-0.2,0-0.3,0-0.5,0c-3.1-0.2-6-1.4-8.2-2.5c-5.9-2.9-11.2-7-15.5-12.1C8,28,5.6,24,4.1,19.7
			c-1-2.6-1.3-4.6-1.2-6.6C3,11.9,3.5,10.9,4.3,10l3.6-3.6C8.4,6,9,5.7,9.5,5.7c0.7,0,1.2,0.4,1.5,0.7c0,0,0,0,0,0
			c0.6,0.6,1.2,1.2,1.9,1.9c0.3,0.3,0.7,0.7,1,1l2.9,2.9c1.1,1.1,1.1,2.1,0,3.3c-0.3,0.3-0.6,0.6-0.9,0.9c-0.9,0.9-1.7,1.7-2.6,2.6
			c0,0,0,0-0.1,0.1c-0.9,0.9-0.7,1.8-0.5,2.4c0,0,0,0.1,0,0.1c0.7,1.8,1.8,3.5,3.4,5.5l0,0c2.9,3.6,6,6.4,9.3,8.5
			c0.4,0.3,0.9,0.5,1.3,0.7c0.4,0.2,0.7,0.4,1,0.6c0,0,0.1,0.1,0.1,0.1c0.4,0.2,0.7,0.3,1,0.3c0.9,0,1.4-0.5,1.6-0.7l3.6-3.6
			c0.4-0.4,0.9-0.8,1.6-0.8c0.7,0,1.2,0.4,1.5,0.8c0,0,0,0,0,0l5.8,5.8C44.1,39.6,44.1,40.7,43,41.9z"/>
		<path class="st0" d="M26.8,11.8c2.8,0.5,5.2,1.8,7.2,3.8c2,2,3.3,4.5,3.8,7.2c0.1,0.7,0.7,1.2,1.4,1.2c0.1,0,0.2,0,0.2,0
			c0.8-0.1,1.3-0.9,1.2-1.6c-0.6-3.3-2.1-6.4-4.5-8.8c-2.4-2.4-5.4-4-8.8-4.5c-0.8-0.1-1.5,0.4-1.6,1.2C25.6,11,26.1,11.7,26.8,11.8
			z"/>
		<path class="st0" d="M49.6,21.9c-0.9-5.5-3.5-10.5-7.5-14.4c-4-4-9-6.5-14.4-7.5c-0.8-0.1-1.5,0.4-1.6,1.2C26,2,26.5,2.7,27.3,2.8
			c4.9,0.8,9.4,3.1,12.9,6.7c3.5,3.5,5.9,8,6.7,12.9c0.1,0.7,0.7,1.2,1.4,1.2c0.1,0,0.2,0,0.2,0C49.2,23.4,49.8,22.7,49.6,21.9z"/>
	</g>
</g>
</svg>
