<?xml version="1.0" encoding="utf-8"?>
<!-- Generator: Adobe Illustrator 21.1.0, SVG Export Plug-In . SVG Version: 6.00 Build 0)  -->
<svg version="1.1" id="Layer_1" xmlns="http://www.w3.org/2000/svg" xmlns:xlink="http://www.w3.org/1999/xlink" x="0px" y="0px"
	 viewBox="0 0 74.4 65" style="enable-background:new 0 0 74.4 65;" xml:space="preserve">
<style type="text/css">
	.st0{fill:#FFFFFF;}
</style>
<g>
	<g>
		<path class="st0" d="M74.3,44.7l-1.5-4.1c-0.1-0.3-0.3-0.5-0.6-0.6c0,0,0,0,0,0c0,0,0,0,0,0c0,0,0,0,0,0c0,0,0,0,0,0
			c-0.2-0.1-0.5-0.1-0.7,0l-3.6,1.3l-7.6-20.8c0,0,0,0,0,0l-3-8.2c-0.2-0.4-0.6-0.7-1-0.7c-0.1,0-0.3,0-0.4,0.1
			c-0.6,0.2-0.9,0.8-0.7,1.4l2.6,7.2l-14,5.1l0,0l0,0l-8.5,3.1l-5.7-15.7l7.5-2.7l1.6,4.4c0.2,0.4,0.6,0.7,1,0.7
			c0.1,0,0.3,0,0.4-0.1l5.5-2c0.3-0.1,0.5-0.3,0.6-0.6c0.1-0.2,0.1-0.4,0.1-0.6c0,0,0,0,0,0c0,0,0-0.1,0-0.1c0,0,0,0,0,0
			c0,0,0-0.1,0-0.1l-1.6-4.4l7.5-2.7l1.6,4.4c0.2,0.4,0.6,0.7,1,0.7c0.1,0,0.3,0,0.4-0.1c0.6-0.2,0.9-0.8,0.7-1.4l-2-5.5
			C53.7,2.3,53.4,2.1,53,2c-0.1,0-0.1,0-0.2,0c-0.1,0-0.3,0-0.4,0.1l-9.6,3.5c0,0,0,0,0,0c0,0,0,0,0,0l-5.4,2c0,0,0,0,0,0
			c0,0,0,0,0,0L27.9,11c-0.3,0.1-0.5,0.3-0.6,0.6c-0.1,0.3-0.1,0.6,0,0.8l6.5,17.8l6.2,17.1c-0.8-0.2-1.6-0.4-2.5-0.4L21.7,3.6
			c-1-2.8-4.2-4.3-7-3.3l0,0l-14,5l0,0l0,0c0,0,0,0-0.1,0c0,0,0,0,0,0c0,0,0,0-0.1,0c0,0,0,0,0,0c0,0,0,0-0.1,0c0,0,0,0,0,0
			c0,0,0,0-0.1,0c0,0,0,0,0,0c0,0,0,0,0,0c0,0,0,0,0,0c0,0,0,0,0,0.1c0,0,0,0,0,0c0,0,0,0,0,0.1c0,0,0,0,0,0c0,0,0,0,0,0.1
			c0,0,0,0,0,0c0,0,0,0,0,0.1c0,0,0,0,0,0c0,0,0,0,0,0.1c0,0,0,0,0,0c0,0,0,0,0,0.1c0,0,0,0,0,0c0,0,0,0,0,0.1c0,0,0,0,0,0
			c0,0,0,0,0,0.1c0,0,0,0,0,0c0,0,0,0,0,0.1c0,0,0,0,0,0c0,0,0,0,0,0.1c0,0,0,0,0,0c0,0,0,0,0,0.1c0,0,0,0,0,0l0,0c0,0,0,0,0,0
			l1.5,4.1c0,0,0,0.1,0,0.1c0,0,0,0,0,0.1c0,0,0,0.1,0.1,0.1c0,0,0,0,0,0.1c0,0,0.1,0.1,0.1,0.1c0,0,0,0,0,0c0,0,0.1,0.1,0.1,0.1
			c0,0,0,0,0,0c0,0,0.1,0,0.1,0.1c0,0,0,0,0,0c0,0,0.1,0,0.1,0c0,0,0,0,0,0c0,0,0.1,0,0.1,0c0,0,0,0,0,0c0.1,0,0.1,0,0.2,0
			c0,0,0.1,0,0.1,0c0,0,0,0,0,0c0,0,0,0,0.1,0c0,0,0,0,0,0c0,0,0,0,0.1,0c0,0,0,0,0.1,0c0,0,0,0,0,0l0,0l0,0l0,0l13-4.7l15.4,42.2
			c-2.7,2.4-3.9,6.3-2.6,9.9c1.3,3.6,4.7,6,8.5,6c1.1,0,2.1-0.2,3.1-0.5c2.3-0.8,4.1-2.5,5.1-4.7c0.5-1.2,0.8-2.4,0.9-3.7l27.4-9.9
			l0,0h0c0,0,0,0,0,0c0,0,0.1,0,0.1,0c0,0,0,0,0,0c0,0,0,0,0.1,0c0,0,0,0,0,0c0,0,0,0,0.1,0c0,0,0,0,0,0c0,0,0,0,0.1-0.1
			c0,0,0,0,0,0c0,0,0,0,0.1-0.1c0,0,0,0,0,0c0,0,0,0,0.1-0.1c0,0,0,0,0,0c0,0,0-0.1,0.1-0.1c0,0,0,0,0,0c0,0,0-0.1,0-0.1
			c0,0,0,0,0,0c0,0,0,0,0-0.1c0,0,0,0,0,0c0,0,0,0,0-0.1c0,0,0-0.1,0-0.1c0,0,0,0,0,0C74.4,45.1,74.4,44.9,74.3,44.7z M42.6,8
			l1.2,3.4l-3.4,1.2l-1.2-3.4L42.6,8z M49.1,25.7l1.2,3.4l-3.4,1.2L45.7,27L49.1,25.7z M36.1,30.4l7.5-2.7l1.6,4.4
			c0.2,0.4,0.6,0.7,1,0.7c0.1,0,0.3,0,0.4-0.1l5.5-2c0.6-0.2,0.9-0.8,0.7-1.4L51.1,25l7.5-2.7L65.8,42l-21.7,7.9
			c-0.4-0.5-0.9-0.9-1.4-1.3L36.1,30.4z M17.6,5.1C17.6,5.1,17.6,5,17.6,5.1c0-0.1,0-0.1,0-0.1c0,0,0,0,0,0c0,0,0,0,0-0.1
			c0,0,0,0,0,0c0,0,0,0,0-0.1c0,0,0,0,0,0c0,0,0,0,0-0.1c0,0,0,0,0,0c0,0,0,0-0.1-0.1c0,0,0,0,0,0c0,0,0,0-0.1-0.1c0,0,0,0,0,0
			c0,0-0.1,0-0.1-0.1c0,0,0,0,0,0c-0.1-0.1-0.3-0.1-0.5-0.1c0,0,0,0,0,0c0,0-0.1,0-0.1,0c0,0,0,0,0,0c0,0-0.1,0-0.1,0c0,0,0,0,0,0
			c0,0,0,0-0.1,0c0,0,0,0-0.1,0c0,0,0,0,0,0l0,0l0,0l0,0l-13,4.7l-0.7-2l13-4.7l0,0c0,0,0,0,0,0c1.7-0.6,3.6,0.3,4.2,2l15.6,42.7
			c-0.4,0.1-0.7,0.2-1,0.3c-0.3,0.1-0.7,0.3-1,0.4L17.6,5.1z M43.5,58.8c-0.8,1.7-2.2,2.9-3.9,3.6c-0.8,0.3-1.6,0.4-2.4,0.4
			c-2.9,0-5.5-1.8-6.5-4.5c-1.3-3.6,0.5-7.5,4.1-8.8c0.8-0.3,1.6-0.4,2.4-0.4c2.9,0,5.5,1.8,6.5,4.5C44.4,55.3,44.3,57.2,43.5,58.8z
			 M46.1,53.9c-0.1-0.4-0.2-0.7-0.3-1c-0.1-0.3-0.3-0.7-0.4-1l25.8-9.4l0.7,2L46.1,53.9z"/>
	</g>
</g>
</svg>
