<?xml version="1.0" encoding="utf-8"?>
<svg width="326.25px" height="72.5px" viewBox="0 0 326.25 72.5" version="1.1" xmlns:xlink="http://www.w3.org/1999/xlink" xmlns="http://www.w3.org/2000/svg">
  <g id="metan" fill="#FFFFFF" transform="translate(0 0.25)">
    <path d="M98.432 55.424Q99.776 56.704 102.592 56.704Q103.744 56.704 105.28 56.512Q106.816 56.32 108.864 55.936L109.312 50.56Q107.84 50.56 106.848 50.464Q105.856 50.368 104.96 50.24L104.96 29.312L110.336 29.312L110.336 24L104.96 24L104.96 15.552L97.088 17.536L97.088 24L92.864 24L92.864 29.312L97.088 29.312L97.088 51.392Q97.088 54.144 98.432 55.424ZM5.184 56L5.184 24L8.896 24L10.944 27.2Q13.376 25.216 16.224 24.256Q19.072 23.296 22.464 23.296Q26.944 23.296 29.28 24.8Q30.2256 25.4088 30.7885 26.2432Q32.6718 24.968 34.784 24.256Q37.632 23.296 41.024 23.296Q45.504 23.296 47.84 24.8Q50.176 26.304 50.176 29.184L50.176 56L42.304 56L42.304 29.76L36.352 29.76Q33.6 29.76 32.608 30.464Q31.616 31.168 31.616 33.024L31.616 56L23.744 56L23.744 29.76L17.792 29.76Q15.04 29.76 14.048 30.464Q13.056 31.168 13.056 33.024L13.056 56L5.184 56ZM71.936 56.704Q68.096 56.704 65.472 55.872Q62.848 55.04 61.344 53.12Q59.84 51.2 59.136 48Q58.432 44.8 58.432 40Q58.432 33.728 59.808 30.08Q61.184 26.432 64.32 24.864Q67.456 23.296 72.768 23.296Q77.952 23.296 80.832 24.16Q83.712 25.024 84.864 27.168Q86.016 29.312 86.016 33.216Q86.016 36.416 85.28 38.432Q84.544 40.448 82.496 41.536Q80.448 42.624 76.672 43.04Q72.896 43.456 66.752 43.456L66.752 50.048Q69.056 50.688 73.088 50.688Q75.712 50.688 78.304 50.336Q80.896 49.984 84.224 49.088L85.184 54.72Q82.624 55.68 79.104 56.192Q75.584 56.704 71.936 56.704ZM126.144 56.704Q120.768 56.704 118.4 54.4Q116.032 52.096 116.032 46.784Q116.032 43.584 116.768 41.568Q117.504 39.552 119.392 38.464Q121.28 37.376 124.864 36.96Q128.448 36.544 134.208 36.544L135.424 36.544L135.424 29.952Q133.376 29.312 129.664 29.312Q127.104 29.312 124.288 29.696Q121.472 30.08 118.464 30.912L117.44 25.28Q119.232 24.64 121.44 24.192Q123.648 23.744 126.08 23.52Q128.512 23.296 130.816 23.296Q135.36 23.296 138.08 24.224Q140.8 25.152 142.048 27.232Q143.296 29.312 143.296 32.768L143.296 56L139.52 56L137.472 52.8Q132.864 56.704 126.144 56.704ZM157.056 24L153.344 24L153.344 56L161.216 56L161.216 33.024Q161.216 31.168 162.208 30.464Q163.2 29.76 165.952 29.76L172.544 29.76L172.544 56L180.416 56L180.416 29.184Q180.416 26.304 178.08 24.8Q175.744 23.296 171.264 23.296Q167.552 23.296 164.576 24.256Q161.6 25.216 159.104 27.2L157.056 24ZM66.752 32.896L66.752 38.784L73.856 38.784Q76.8 38.784 77.888 38.048Q78.976 37.312 78.976 35.264L78.976 29.504L71.872 29.504Q68.928 29.504 67.84 30.208Q66.752 30.912 66.752 32.896ZM128.256 41.216L135.424 41.216L135.424 47.552Q135.424 49.472 134.368 50.208Q133.312 50.944 130.432 50.944L123.264 50.944L123.264 44.736Q123.264 42.688 124.288 41.952Q125.312 41.216 128.256 41.216Z" />
  </g>
  <path d="M192 0.25L326 0.25L326 72.25L192 72.25L192 0.25Z" id="Rectangle" fill="none" fill-rule="evenodd" stroke="#FFFFFF" stroke-width="0.5" />
  <g id="CH4" fill="#FFFFFF" transform="translate(192 0.25)">
    <path d="M31.288 13.8622Q36.984 13.8623 41.752 16.1342Q46.52 18.4063 46.52 21.3502Q46.52 22.6302 45.656 23.5262Q44.792 24.4222 43.576 24.4222Q42.36 24.4222 41.144 23.4622Q39.928 22.5023 38.808 21.3182Q37.688 20.1342 35.288 19.1742Q32.888 18.2142 29.624 18.2142Q22.328 18.2142 18.136 22.7902Q13.944 27.3662 13.944 35.2062Q13.944 43.0462 18.552 48.7422Q23.16 54.4383 30.232 54.4383Q37.304 54.4383 43.128 47.6543Q44.408 46.1182 45.016 46.1182Q45.624 46.1182 45.976 46.5342Q46.328 46.9502 46.328 47.7822Q46.328 48.6143 45.016 50.4382Q43.704 52.2622 41.496 54.1502Q39.288 56.0382 35.736 57.4142Q32.184 58.7902 28.344 58.7902Q19.896 58.7902 14.296 52.7743Q8.696 46.7582 8.696 37.2542Q8.696 27.7502 15.128 20.8062Q21.56 13.8623 31.288 13.8622ZM79.992 37.2862L68.472 36.9022Q64.824 36.9022 61.304 37.0942Q61.304 43.0462 61.592 48.8703Q61.88 54.6942 61.88 55.7183Q61.88 56.7422 61.016 57.7663Q60.152 58.7902 58.808 58.7902Q57.464 58.7902 56.6 57.7663Q55.736 56.7422 55.736 55.6222Q55.736 54.5023 55.992 48.8063Q56.248 43.1103 56.312 37.2862L55.544 37.2862Q54.52 37.2862 53.72 36.6143Q52.92 35.9422 52.92 34.7902Q52.92 33.6383 53.72 32.9662Q54.52 32.2943 55.544 32.2943L56.312 32.2943Q56.248 26.9183 55.992 22.4382Q55.736 17.9583 55.736 16.9662Q55.736 15.9743 56.6 14.9502Q57.464 13.9262 58.808 13.9262Q60.152 13.9262 61.016 14.9502Q61.88 15.9743 61.88 16.8702Q61.88 17.7663 61.624 22.3742Q61.368 26.9823 61.304 32.4862Q64.76 32.6783 68.472 32.6782L79.992 32.2943Q79.928 26.9183 79.672 22.4382Q79.416 17.9583 79.416 16.9662Q79.416 15.9743 80.28 14.9502Q81.144 13.9262 82.488 13.9262Q83.832 13.9262 84.696 14.9502Q85.56 15.9743 85.56 17.2542Q85.56 17.4462 85.272 23.1423Q84.984 28.8382 84.984 35.6862Q84.984 42.5342 85.272 48.6143Q85.56 54.6943 85.56 55.7183Q85.56 56.7422 84.696 57.7663Q83.832 58.7902 82.488 58.7902Q81.144 58.7902 80.28 57.7663Q79.416 56.7422 79.416 55.6222Q79.416 54.5023 79.672 48.8063Q79.928 43.1103 79.992 37.2862ZM95.864 44.7103L110.392 44.3903L112.696 44.3903L112.376 54.1182Q112.376 56.0382 113.304 57.4142Q114.232 58.7902 115.768 58.7902Q117.304 58.7902 118.264 57.7342Q119.224 56.6782 119.224 55.3343Q119.224 53.9902 118.296 52.1982Q117.368 50.4063 117.144 49.1263Q116.92 47.8463 116.792 44.5182L121.72 44.7103Q122.744 44.7103 123.384 44.0382Q124.024 43.3662 124.024 42.3422Q124.024 41.3182 123.384 40.6782Q122.744 40.0382 122.04 40.0382Q121.336 40.0382 116.728 40.2943L116.728 37.2222Q116.728 26.1503 117.048 22.1182L117.56 22.1182Q118.776 22.1183 119.544 21.3182Q120.312 20.5182 120.312 19.3662Q120.312 17.0622 117.752 17.0622Q114.552 17.0623 110.552 19.8142Q106.552 22.5662 103.16 26.6622Q99.768 30.7583 96.664 35.7503Q93.56 40.7422 93.56 42.0542Q93.56 43.3662 94.2 44.0382Q94.84 44.7103 95.864 44.7103ZM110.392 40.4222L97.464 40.1022Q104.76 26.7903 112.504 23.2702Q112.76 32.2302 112.76 37.2222L112.76 40.4222L110.392 40.4222Z" />
  </g>
</svg>