<?xml version="1.0" encoding="utf-8"?>
<!-- Generator: Adobe Illustrator 18.0.0, SVG Export Plug-In . SVG Version: 6.00 Build 0)  -->
<!DOCTYPE svg PUBLIC "-//W3C//DTD SVG 1.1//EN" "http://www.w3.org/Graphics/SVG/1.1/DTD/svg11.dtd">
<svg version="1.1" id="Layer_1" xmlns="http://www.w3.org/2000/svg" xmlns:xlink="http://www.w3.org/1999/xlink" x="0px" y="0px"
	 width="24px" height="24px" viewBox="13 13 24 24" enable-background="new 13 13 24 24" xml:space="preserve">
<circle fill="none" stroke="#FFFFFF" stroke-width="0.96" stroke-linecap="round" stroke-miterlimit="10" cx="25" cy="25" r="11.5"/>
<rect x="13" y="13" fill="none" width="24" height="24"/>
<path fill="#FFFFFF" d="M27.4,30.1c-0.1-0.8,0-1.3,0-2c0.4-0.2,1-1.4,1.1-2.3c0.3,0,0.7-0.3,0.8-1.4c0.1-0.6-0.2-0.9-0.4-1
	c0.4-1.3,1.4-5.5-1.7-6c-0.3-0.6-1.1-0.8-2.2-0.8c-4.2,0.1-4.8,3.2-3.8,6.8c-0.2,0.1-0.4,0.4-0.4,1c0.1,1.1,0.6,1.3,0.8,1.4
	c0.1,1,0.8,2.2,1.1,2.3c0,0.7,0,1.2,0,2c-0.6,1.6-3.7,1.8-5.5,3.3c1.9,1.9,4.9,3.2,8.1,3.2s7-2.5,7.6-3.2
	C31.1,31.8,28,31.7,27.4,30.1z"/>
</svg>
